<?xml version="1.0" encoding="utf-8"?>
<!-- Generator: Adobe Illustrator 22.1.0, SVG Export Plug-In . SVG Version: 6.00 Build 0)  -->
<svg version="1.1"
	 id="svg2" inkscape:output_extension="org.inkscape.output.svg.inkscape" inkscape:version="0.45.1" sodipodi:docbase="C:\Documents and Settings\Mikla\Moje dokumenty\Rysunki\Inkscape" sodipodi:docname="Seth.svg" sodipodi:version="0.32" xmlns:cc="http://web.resource.org/cc/" xmlns:dc="http://purl.org/dc/elements/1.1/" xmlns:inkscape="http://www.inkscape.org/namespaces/inkscape" xmlns:rdf="http://www.w3.org/1999/02/22-rdf-syntax-ns#" xmlns:sodipodi="http://sodipodi.sourceforge.net/DTD/sodipodi-0.dtd" xmlns:svg="http://www.w3.org/2000/svg"
	 xmlns="http://www.w3.org/2000/svg" xmlns:xlink="http://www.w3.org/1999/xlink" x="0px" y="0px" viewBox="0 0 1280 1024"
	 style="enable-background:new 0 0 1280 1024;" xml:space="preserve">
<style type="text/css">
	.st0{fill:#FFFFFF;}
</style>
<sodipodi:namedview  bordercolor="#666666" borderopacity="1.0" height="1024px" id="base" inkscape:current-layer="layer1" inkscape:cx="640" inkscape:cy="512" inkscape:document-units="px" inkscape:pageopacity="0.0" inkscape:pageshadow="2" inkscape:window-height="938" inkscape:window-width="1280" inkscape:window-x="-4" inkscape:window-y="-4" inkscape:zoom="0.72460938" pagecolor="#ffffff" width="1280px">
	</sodipodi:namedview>
<g id="layer1" inkscape:groupmode="layer" inkscape:label="Warstwa 1">
	<path id="path2224" sodipodi:nodetypes="cccc" class="st0" d="M331.9,697.8c25.4,24.9,54,46.7,82.4,65.7L445,662.7L331.9,697.8z"/>
	<path id="path4170" sodipodi:nodetypes="cccccc" class="st0" d="M482.5,627.6l-83.2,328.2c30.2,20.6,59.8,34.5,93.6,44.7
		l31.7-297.9c-7.7-13.3-10.9-38.4-7.1-85.3L482.5,627.6z"/>
	<path id="path5145" sodipodi:nodetypes="cccc" class="st0" d="M734.9,709.4l4.9,99C783,793,821.3,777,861.3,752.6L734.9,709.4z"/>
	<path id="path6120" sodipodi:nodetypes="cccccccccc" class="st0" d="M770.6,387.3L719,435.1c43.8,68.7-9.8,120.7-89.3,153.6
		l-24,430.2c44.1,2.5,79.2-0.3,121.1-5.5L704.6,675l189,58.6c28.7-24.6,46.6-44.5,66.7-73.7L857.7,432.1L770.6,387.3z"/>
	<path id="path7095" sodipodi:nodetypes="ccccccccccccccccccccc" class="st0" d="M435,424.1l-87.4,26.7c0,0-56.4,79.3-62.7,99.5
		c3.6,7.5,3.9,6.1,14.8,4.5c9.3-0.6,14.9-0.8,19.9,0.7c53.2-25.8,172.1-71.1,223.6,18.8c1.4,88.9-6.9,135.9,51.9,159.9l12.3-163.3
		c98.3-19,143.6-90.5,81.9-139.7l59-39l158-307.3c-55.6-35.5-95.9-45.8-104.9-49.6L675,367.1l-150.1,26.2l-59.6,21.2l74.8,11.7
		l12.1,0.3l63.7,25.1l-36.7-3.3c-15.3,0.5-22.4,11.4-39.4,11C505.7,435.7,485.5,418.3,435,424.1z"/>
	<path id="path8070" sodipodi:nodetypes="ccccc" class="st0" d="M645,10.3l-57.4,355.9l68.6-13.9L766.4,27.8
		C686,7.1,672.3,10.8,645,10.3z"/>
	<path id="path9045" sodipodi:nodetypes="ccccc" class="st0" d="M602.3,10.6C61.9,84.2,12.1,701.1,352.2,929.9l24.4-68.8
		C89.1,633.5,165.5,139.1,603.8,80.1L602.3,10.6z"/>
	<path id="path10020" sodipodi:nodetypes="ccccc" class="st0" d="M907.7,169.9c230.7,173.3,263.9,609.4-141.6,763l16,67.6
		c451-150.5,458.5-678.1,160.7-890.5L907.7,169.9z"/>
</g>
</svg>
