<?xml version="1.0" encoding="utf-8"?>
<!-- Generator: Adobe Illustrator 22.1.0, SVG Export Plug-In . SVG Version: 6.00 Build 0)  -->
<svg version="1.1" id="Capa_1" xmlns="http://www.w3.org/2000/svg" xmlns:xlink="http://www.w3.org/1999/xlink" x="0px" y="0px"
	 viewBox="0 0 438 300.6" style="enable-background:new 0 0 438 300.6;" xml:space="preserve">
<style type="text/css">
	.st0{fill:#F2F2F2;}
	.st1{fill:#FFFFFF;}
</style>
<path id="path3477" class="st0" d="M278.2,142c0.1-0.9,0.1-1.8,0.1-2.8c0-4.6-0.6-10-3.7-15.2c-3.1-5.2-9.7-9.2-17.5-9
	c-7.8-0.2-14.5,3.7-17.5,9c-3.2,5.2-3.7,10.6-3.7,15.2c0,1,0,1.9,0.1,2.8h-5.7v33.7h53.9V142H278.2z M249.2,139.2
	c0-3.2,0.6-6.5,1.7-8.1c1.2-1.5,1.8-2.5,6.1-2.7c4.3,0.2,4.9,1.1,6.1,2.7c1.1,1.6,1.7,4.9,1.7,8.1c0,1-0.1,1.9-0.1,2.8h-15.4
	C249.2,141.1,249.2,140.2,249.2,139.2z M209.9,88.1c11.2,0,20.2-9,20.2-20.2s-9-20.2-20.2-20.2c-11.2,0-20.2,9-20.2,20.2
	S198.7,88.1,209.9,88.1z M263.7,47.7c11.2,0,20.2-9,20.2-20.2s-9-20.2-20.2-20.2s-20.2,9-20.2,20.2S252.6,47.7,263.7,47.7z
	 M183.1,88.1c-4.3-5.6-6.9-12.6-6.9-20.2c0-2.3,0.2-4.6,0.7-6.7c-14.4,0-47.8,0-47.8,0s-13.5,0-13.5,13.5c0,5.2,0,80.8,0,80.8H156
	V115c0-26.9,26.9-26.9,26.9-26.9H183.1z M156,47.7c11.2,0,20.2-9,20.2-20.2s-9-20.2-20.2-20.2c-11.2,0-20.2,9-20.2,20.2
	S144.8,47.7,156,47.7z M304.1,110.6v-36c0,0,0-13.5-13.5-13.5h-47.8c0.4,2.2,0.7,4.4,0.7,6.7c0,7.6-2.6,14.6-6.9,20.2h0.1
	c3.2,0,5.9,0.5,8.4,1.2c-9.8,1.9-18.8,6.2-26.2,12.3c-15.8,0-36,0-36,0s-13.5,0-13.5,13.5c0,5.2,0,80.8,0,80.8H219
	c10.4,8.4,23.6,13.5,38.1,13.5c33.5,0,60.6-27.1,60.6-60.6C317.6,134.3,312.5,121,304.1,110.6z M257,195
	c-25.6-0.1-46.3-20.8-46.4-46.3c0.1-25.6,20.8-46.3,46.4-46.4c25.6,0.1,46.3,20.8,46.3,46.4C303.3,174.3,282.6,195,257,195z"/>
<g>
	<path class="st1" d="M48.1,247.5h-4l-14.5-22.4c-0.4-0.6-0.7-1.1-0.9-1.8h-0.1c0.1,0.6,0.2,1.9,0.2,3.9v20.3h-3.3v-28.1h4.3
		l14.1,22c0.6,0.9,1,1.5,1.1,1.9H45c-0.1-0.8-0.2-2.2-0.2-4.1v-19.8h3.3V247.5z"/>
	<path class="st1" d="M66.7,248c-4,0-7.2-1.3-9.6-3.9s-3.6-6-3.6-10.2c0-4.5,1.2-8.1,3.7-10.8c2.4-2.7,5.8-4,10-4
		c3.9,0,7,1.3,9.4,3.9c2.4,2.6,3.6,6,3.6,10.2c0,4.6-1.2,8.2-3.6,10.9C74.1,246.6,70.8,248,66.7,248z M67,221.9
		c-3,0-5.3,1.1-7.2,3.2c-1.8,2.1-2.8,4.9-2.8,8.4c0,3.5,0.9,6.2,2.7,8.4s4.1,3.2,7,3.2c3.1,0,5.5-1,7.3-3c1.8-2,2.7-4.8,2.7-8.4
		c0-3.7-0.9-6.6-2.6-8.6C72.4,222.9,70,221.9,67,221.9z"/>
	<path class="st1" d="M113.3,222.4h-8.1v25.1h-3.3v-25.1h-8.1v-3h19.5V222.4z"/>
	<path class="st1" d="M121,247.5h-3.3v-28.1h3.3V247.5z"/>
	<path class="st1" d="M143.2,247.5h-14.9v-28.1h14.3v3h-11v9.3h10.1v3h-10.1v9.8h11.6V247.5z"/>
	<path class="st1" d="M171.3,247.5h-4l-14.5-22.4c-0.4-0.6-0.7-1.1-0.9-1.8h-0.1c0.1,0.6,0.2,1.9,0.2,3.9v20.3h-3.3v-28.1h4.3
		l14.1,22c0.6,0.9,1,1.5,1.1,1.9h0.1c-0.1-0.8-0.2-2.2-0.2-4.1v-19.8h3.3V247.5z"/>
	<path class="st1" d="M193.5,247.5h-14.9v-28.1h14.3v3h-11v9.3h10.1v3H182v9.8h11.6V247.5z"/>
	<path class="st1" d="M197.6,246.3v-3.9c0.4,0.4,1,0.7,1.6,1.1c0.6,0.3,1.3,0.6,2,0.8c0.7,0.2,1.4,0.4,2.1,0.5
		c0.7,0.1,1.3,0.2,1.9,0.2c2,0,3.5-0.4,4.5-1.1c1-0.8,1.5-1.8,1.5-3.2c0-0.8-0.2-1.4-0.5-2c-0.3-0.6-0.8-1.1-1.4-1.5
		s-1.3-0.9-2.1-1.3s-1.7-0.9-2.6-1.3c-1-0.5-1.9-1-2.7-1.5c-0.8-0.5-1.6-1.1-2.2-1.7c-0.6-0.6-1.1-1.3-1.5-2.1
		c-0.4-0.8-0.5-1.7-0.5-2.7c0-1.3,0.3-2.4,0.8-3.3c0.6-0.9,1.3-1.7,2.2-2.3c0.9-0.6,2-1.1,3.1-1.4c1.2-0.3,2.4-0.5,3.6-0.5
		c2.8,0,4.8,0.3,6.1,1v3.7c-1.7-1.1-3.8-1.7-6.4-1.7c-0.7,0-1.4,0.1-2.2,0.2c-0.7,0.2-1.4,0.4-1.9,0.7s-1,0.8-1.4,1.3
		c-0.4,0.5-0.5,1.2-0.5,2c0,0.7,0.1,1.3,0.4,1.9c0.3,0.5,0.7,1,1.2,1.4c0.5,0.4,1.2,0.8,1.9,1.3c0.8,0.4,1.6,0.8,2.6,1.3
		c1,0.5,2,1,2.9,1.6s1.7,1.2,2.4,1.8c0.7,0.7,1.2,1.4,1.6,2.2c0.4,0.8,0.6,1.7,0.6,2.8c0,1.4-0.3,2.6-0.8,3.5
		c-0.5,1-1.3,1.7-2.2,2.3c-0.9,0.6-2,1-3.2,1.3c-1.2,0.3-2.5,0.4-3.8,0.4c-0.4,0-1,0-1.6-0.1c-0.7-0.1-1.3-0.2-2-0.3
		c-0.7-0.1-1.3-0.3-1.9-0.5C198.5,246.8,198,246.6,197.6,246.3z"/>
	<path class="st1" d="M234.6,236.9v10.6h-3.3v-28.1h7.7c3,0,5.3,0.7,7,2.2c1.7,1.5,2.5,3.5,2.5,6.2s-0.9,4.8-2.8,6.5
		c-1.8,1.7-4.3,2.5-7.4,2.5H234.6z M234.6,222.4v11.5h3.4c2.3,0,4-0.5,5.2-1.6s1.8-2.5,1.8-4.4c0-3.7-2.2-5.6-6.6-5.6H234.6z"/>
	<path class="st1" d="M268.6,247.5h-14.9v-28.1H268v3h-11v9.3h10.1v3H257v9.8h11.6V247.5z"/>
	<path class="st1" d="M294.2,247.5h-3.9l-4.7-7.9c-0.4-0.7-0.8-1.4-1.3-1.9c-0.4-0.5-0.8-0.9-1.2-1.3c-0.4-0.3-0.9-0.6-1.4-0.7
		c-0.5-0.2-1-0.2-1.7-0.2h-2.7v12H274v-28.1h8.4c1.2,0,2.4,0.2,3.4,0.5c1,0.3,1.9,0.8,2.7,1.4c0.8,0.6,1.4,1.4,1.8,2.3
		c0.4,0.9,0.6,2,0.6,3.3c0,1-0.1,1.9-0.4,2.7c-0.3,0.8-0.7,1.5-1.3,2.2c-0.5,0.6-1.2,1.2-2,1.6c-0.8,0.5-1.6,0.8-2.6,1v0.1
		c0.5,0.2,0.9,0.4,1.2,0.7c0.3,0.3,0.7,0.6,1,1c0.3,0.4,0.6,0.8,0.9,1.2s0.6,1,1,1.6L294.2,247.5z M277.3,222.4v10.2h4.5
		c0.8,0,1.6-0.1,2.3-0.4c0.7-0.2,1.3-0.6,1.8-1.1c0.5-0.5,0.9-1,1.2-1.7c0.3-0.7,0.4-1.4,0.4-2.3c0-1.5-0.5-2.7-1.5-3.5
		c-1-0.8-2.4-1.3-4.2-1.3H277.3z"/>
	<path class="st1" d="M326.7,247.5h-3.3v-18.8c0-1.5,0.1-3.3,0.3-5.5h-0.1c-0.3,1.3-0.6,2.2-0.8,2.7l-9.6,21.6h-1.6l-9.6-21.4
		c-0.3-0.6-0.6-1.6-0.8-2.9H301c0.1,1.1,0.2,3,0.2,5.5v18.8H298v-28.1h4.3L311,239c0.7,1.5,1.1,2.6,1.3,3.4h0.1
		c0.6-1.5,1-2.7,1.4-3.4l8.8-19.5h4.1V247.5z"/>
	<path class="st1" d="M337.3,247.5h-3.3v-28.1h3.3V247.5z"/>
	<path class="st1" d="M343.4,246.3v-3.9c0.4,0.4,1,0.7,1.6,1.1s1.3,0.6,2,0.8c0.7,0.2,1.4,0.4,2.1,0.5c0.7,0.1,1.3,0.2,1.9,0.2
		c2,0,3.5-0.4,4.5-1.1c1-0.8,1.5-1.8,1.5-3.2c0-0.8-0.2-1.4-0.5-2s-0.8-1.1-1.4-1.5c-0.6-0.5-1.3-0.9-2.1-1.3
		c-0.8-0.4-1.7-0.9-2.6-1.3c-1-0.5-1.9-1-2.7-1.5c-0.8-0.5-1.6-1.1-2.2-1.7s-1.1-1.3-1.5-2.1c-0.4-0.8-0.5-1.7-0.5-2.7
		c0-1.3,0.3-2.4,0.8-3.3c0.6-0.9,1.3-1.7,2.2-2.3s2-1.1,3.1-1.4s2.4-0.5,3.6-0.5c2.8,0,4.8,0.3,6.1,1v3.7c-1.7-1.1-3.8-1.7-6.4-1.7
		c-0.7,0-1.4,0.1-2.2,0.2c-0.7,0.2-1.4,0.4-1.9,0.7s-1,0.8-1.4,1.3s-0.5,1.2-0.5,2c0,0.7,0.1,1.3,0.4,1.9c0.3,0.5,0.7,1,1.2,1.4
		c0.5,0.4,1.2,0.8,1.9,1.3c0.8,0.4,1.6,0.8,2.6,1.3c1,0.5,2,1,2.9,1.6s1.7,1.2,2.4,1.8c0.7,0.7,1.2,1.4,1.6,2.2
		c0.4,0.8,0.6,1.7,0.6,2.8c0,1.4-0.3,2.6-0.8,3.5c-0.5,1-1.3,1.7-2.2,2.3s-2,1-3.2,1.3c-1.2,0.3-2.5,0.4-3.8,0.4c-0.4,0-1,0-1.6-0.1
		c-0.7-0.1-1.3-0.2-2-0.3c-0.7-0.1-1.3-0.3-1.9-0.5S343.8,246.6,343.4,246.3z"/>
	<path class="st1" d="M377.4,248c-4,0-7.2-1.3-9.6-3.9s-3.6-6-3.6-10.2c0-4.5,1.2-8.1,3.7-10.8s5.8-4,10-4c3.9,0,7,1.3,9.4,3.9
		c2.4,2.6,3.6,6,3.6,10.2c0,4.6-1.2,8.2-3.6,10.9C384.7,246.6,381.4,248,377.4,248z M377.6,221.9c-3,0-5.3,1.1-7.2,3.2
		s-2.8,4.9-2.8,8.4c0,3.5,0.9,6.2,2.7,8.4s4.1,3.2,7,3.2c3.1,0,5.5-1,7.3-3c1.8-2,2.7-4.8,2.7-8.4c0-3.7-0.9-6.6-2.6-8.6
		C383,222.9,380.6,221.9,377.6,221.9z"/>
	<path class="st1" d="M395,246.3v-3.9c0.4,0.4,1,0.7,1.6,1.1s1.3,0.6,2,0.8s1.4,0.4,2.1,0.5c0.7,0.1,1.3,0.2,1.9,0.2
		c2,0,3.5-0.4,4.5-1.1c1-0.8,1.5-1.8,1.5-3.2c0-0.8-0.2-1.4-0.5-2s-0.8-1.1-1.4-1.5s-1.3-0.9-2.1-1.3s-1.7-0.9-2.6-1.3
		c-1-0.5-1.9-1-2.7-1.5c-0.8-0.5-1.6-1.1-2.2-1.7s-1.1-1.3-1.5-2.1c-0.4-0.8-0.5-1.7-0.5-2.7c0-1.3,0.3-2.4,0.8-3.3
		c0.6-0.9,1.3-1.7,2.2-2.3s2-1.1,3.1-1.4s2.4-0.5,3.6-0.5c2.8,0,4.8,0.3,6.1,1v3.7c-1.7-1.1-3.8-1.7-6.4-1.7c-0.7,0-1.4,0.1-2.2,0.2
		c-0.7,0.2-1.4,0.4-1.9,0.7s-1,0.8-1.4,1.3c-0.4,0.5-0.5,1.2-0.5,2c0,0.7,0.1,1.3,0.4,1.9c0.3,0.5,0.7,1,1.2,1.4s1.2,0.8,1.9,1.3
		c0.8,0.4,1.6,0.8,2.6,1.3c1,0.5,2,1,2.9,1.6s1.7,1.2,2.4,1.8c0.7,0.7,1.2,1.4,1.6,2.2s0.6,1.7,0.6,2.8c0,1.4-0.3,2.6-0.8,3.5
		c-0.5,1-1.3,1.7-2.2,2.3s-2,1-3.2,1.3c-1.2,0.3-2.5,0.4-3.8,0.4c-0.4,0-1,0-1.6-0.1c-0.7-0.1-1.3-0.2-2-0.3
		c-0.7-0.1-1.3-0.3-1.9-0.5S395.3,246.6,395,246.3z"/>
	<path class="st1" d="M79.9,285v10.6h-3.3v-28.1h7.7c3,0,5.3,0.7,7,2.2s2.5,3.5,2.5,6.2s-0.9,4.8-2.8,6.5c-1.8,1.7-4.3,2.5-7.4,2.5
		H79.9z M79.9,270.5V282h3.4c2.3,0,4-0.5,5.2-1.6c1.2-1,1.8-2.5,1.8-4.4c0-3.7-2.2-5.6-6.6-5.6H79.9z"/>
	<path class="st1" d="M117.7,295.6h-3.6l-3-7.9H99.2l-2.8,7.9h-3.7l10.8-28.1h3.4L117.7,295.6z M110,284.8l-4.4-12
		c-0.1-0.4-0.3-1-0.4-1.9h-0.1c-0.1,0.8-0.3,1.4-0.5,1.9l-4.4,12H110z"/>
	<path class="st1" d="M142,295.6h-3.9l-4.7-7.9c-0.4-0.7-0.8-1.4-1.3-1.9c-0.4-0.5-0.8-0.9-1.2-1.3c-0.4-0.3-0.9-0.6-1.4-0.7
		c-0.5-0.2-1-0.2-1.7-0.2h-2.7v12h-3.3v-28.1h8.4c1.2,0,2.4,0.2,3.4,0.5s1.9,0.8,2.7,1.4s1.4,1.4,1.8,2.3s0.6,2,0.6,3.3
		c0,1-0.1,1.9-0.4,2.7s-0.7,1.5-1.3,2.2s-1.2,1.2-2,1.6c-0.8,0.5-1.6,0.8-2.6,1v0.1c0.5,0.2,0.9,0.4,1.2,0.7s0.7,0.6,1,1
		c0.3,0.4,0.6,0.8,0.9,1.2c0.3,0.5,0.6,1,1,1.6L142,295.6z M125.1,270.5v10.2h4.5c0.8,0,1.6-0.1,2.3-0.4c0.7-0.2,1.3-0.6,1.8-1.1
		c0.5-0.5,0.9-1,1.2-1.7c0.3-0.7,0.4-1.4,0.4-2.3c0-1.5-0.5-2.7-1.5-3.5c-1-0.8-2.4-1.3-4.2-1.3H125.1z"/>
	<path class="st1" d="M167.6,295.6h-3.6l-3-7.9h-11.9l-2.8,7.9h-3.7l10.8-28.1h3.4L167.6,295.6z M159.9,284.8l-4.4-12
		c-0.1-0.4-0.3-1-0.4-1.9H155c-0.1,0.8-0.3,1.4-0.5,1.9l-4.4,12H159.9z"/>
	<path class="st1" d="M186,295.6h-3.3v-28.1h3.3V295.6z"/>
	<path class="st1" d="M216,295.6h-4l-14.5-22.4c-0.4-0.6-0.7-1.1-0.9-1.8h-0.1c0.1,0.6,0.2,1.9,0.2,3.9v20.3h-3.3v-28.1h4.3l14.1,22
		c0.6,0.9,1,1.5,1.1,1.9h0.1c-0.1-0.8-0.2-2.2-0.2-4.1v-19.8h3.3V295.6z"/>
	<path class="st1" d="M244.4,293.7c-2.8,1.6-6,2.4-9.4,2.4c-4,0-7.3-1.3-9.7-3.9c-2.5-2.6-3.7-6-3.7-10.3c0-4.3,1.4-7.9,4.1-10.7
		c2.7-2.8,6.2-4.2,10.5-4.2c3.1,0,5.6,0.5,7.7,1.5v3.6c-2.3-1.4-5-2.2-8.1-2.2c-3.1,0-5.7,1.1-7.7,3.3c-2,2.2-3,5-3,8.4
		c0,3.6,0.9,6.3,2.8,8.4c1.9,2,4.4,3,7.6,3c2.2,0,4.1-0.4,5.7-1.3V284H235v-3h9.4V293.7z"/>
	<path class="st1" d="M271.1,295.6h-3.9l-4.7-7.9c-0.4-0.7-0.8-1.4-1.3-1.9c-0.4-0.5-0.8-0.9-1.2-1.3c-0.4-0.3-0.9-0.6-1.4-0.7
		c-0.5-0.2-1-0.2-1.7-0.2h-2.7v12h-3.3v-28.1h8.4c1.2,0,2.4,0.2,3.4,0.5c1,0.3,1.9,0.8,2.7,1.4c0.8,0.6,1.4,1.4,1.8,2.3
		c0.4,0.9,0.6,2,0.6,3.3c0,1-0.1,1.9-0.4,2.7c-0.3,0.8-0.7,1.5-1.3,2.2s-1.2,1.2-2,1.6c-0.8,0.5-1.6,0.8-2.6,1v0.1
		c0.5,0.2,0.9,0.4,1.2,0.7s0.7,0.6,1,1c0.3,0.4,0.6,0.8,0.9,1.2c0.3,0.5,0.6,1,1,1.6L271.1,295.6z M254.2,270.5v10.2h4.5
		c0.8,0,1.6-0.1,2.3-0.4c0.7-0.2,1.3-0.6,1.8-1.1s0.9-1,1.2-1.7c0.3-0.7,0.4-1.4,0.4-2.3c0-1.5-0.5-2.7-1.5-3.5
		c-1-0.8-2.4-1.3-4.2-1.3H254.2z"/>
	<path class="st1" d="M289.8,295.6h-14.9v-28.1h14.3v3h-11v9.3h10.1v3h-10.1v9.8h11.6V295.6z"/>
	<path class="st1" d="M293.9,294.5v-3.9c0.4,0.4,1,0.7,1.6,1.1s1.3,0.6,2,0.8c0.7,0.2,1.4,0.4,2.1,0.5c0.7,0.1,1.3,0.2,1.9,0.2
		c2,0,3.5-0.4,4.5-1.1c1-0.8,1.5-1.8,1.5-3.2c0-0.8-0.2-1.4-0.5-2s-0.8-1.1-1.4-1.5c-0.6-0.5-1.3-0.9-2.1-1.3
		c-0.8-0.4-1.7-0.9-2.6-1.3c-1-0.5-1.9-1-2.7-1.5s-1.6-1.1-2.2-1.7s-1.1-1.3-1.5-2.1c-0.4-0.8-0.5-1.7-0.5-2.7
		c0-1.3,0.3-2.4,0.8-3.3c0.6-0.9,1.3-1.7,2.2-2.3s2-1.1,3.1-1.4s2.4-0.5,3.6-0.5c2.8,0,4.8,0.3,6.1,1v3.7c-1.7-1.1-3.8-1.7-6.4-1.7
		c-0.7,0-1.4,0.1-2.2,0.2c-0.7,0.2-1.4,0.4-1.9,0.7c-0.6,0.3-1,0.8-1.4,1.3s-0.5,1.2-0.5,2c0,0.7,0.1,1.3,0.4,1.9
		c0.3,0.5,0.7,1,1.2,1.4c0.5,0.4,1.2,0.8,1.9,1.3c0.8,0.4,1.6,0.8,2.6,1.3c1,0.5,2,1,2.9,1.6s1.7,1.2,2.4,1.8
		c0.7,0.7,1.2,1.4,1.6,2.2c0.4,0.8,0.6,1.7,0.6,2.8c0,1.4-0.3,2.6-0.8,3.5s-1.3,1.7-2.2,2.3c-0.9,0.6-2,1-3.2,1.3s-2.5,0.4-3.8,0.4
		c-0.4,0-1,0-1.6-0.1c-0.7-0.1-1.3-0.2-2-0.3s-1.3-0.3-1.9-0.5C294.8,295,294.3,294.7,293.9,294.5z"/>
	<path class="st1" d="M338.3,295.6h-3.6l-3-7.9h-11.9l-2.8,7.9h-3.7l10.8-28.1h3.4L338.3,295.6z M330.6,284.8l-4.4-12
		c-0.1-0.4-0.3-1-0.4-1.9h-0.1c-0.1,0.8-0.3,1.4-0.5,1.9l-4.4,12H330.6z"/>
	<path class="st1" d="M362.6,295.6h-3.9l-4.7-7.9c-0.4-0.7-0.8-1.4-1.3-1.9c-0.4-0.5-0.8-0.9-1.2-1.3c-0.4-0.3-0.9-0.6-1.4-0.7
		c-0.5-0.2-1-0.2-1.7-0.2h-2.7v12h-3.3v-28.1h8.4c1.2,0,2.4,0.2,3.4,0.5c1,0.3,1.9,0.8,2.7,1.4c0.8,0.6,1.4,1.4,1.8,2.3
		c0.4,0.9,0.6,2,0.6,3.3c0,1-0.1,1.9-0.4,2.7s-0.7,1.5-1.3,2.2s-1.2,1.2-2,1.6c-0.8,0.5-1.6,0.8-2.6,1v0.1c0.5,0.2,0.9,0.4,1.2,0.7
		s0.7,0.6,1,1s0.6,0.8,0.9,1.2c0.3,0.5,0.6,1,1,1.6L362.6,295.6z M345.7,270.5v10.2h4.5c0.8,0,1.6-0.1,2.3-0.4
		c0.7-0.2,1.3-0.6,1.8-1.1c0.5-0.5,0.9-1,1.2-1.7c0.3-0.7,0.4-1.4,0.4-2.3c0-1.5-0.5-2.7-1.5-3.5s-2.4-1.3-4.2-1.3H345.7z"/>
</g>
</svg>
