<?xml version="1.0" standalone="no"?>
<!DOCTYPE svg PUBLIC "-//W3C//DTD SVG 20010904//EN"
 "http://www.w3.org/TR/2001/REC-SVG-20010904/DTD/svg10.dtd">
<svg version="1.0" xmlns="http://www.w3.org/2000/svg"
 width="260.000000pt" height="260.000000pt" viewBox="0 0 260.000000 260.000000"
 preserveAspectRatio="xMidYMid meet">
<metadata>
Created by potrace 1.14, written by Peter Selinger 2001-2017
</metadata>
<g transform="translate(0.000000,260.000000) scale(0.100000,-0.100000)"
fill="#000000" stroke="none">
<path d="M1157 2223 c-2 -5 -3 -56 -2 -115 1 -60 1 -108 0 -108 -1 0 -12 9
-25 20 -13 11 -26 20 -30 20 -4 0 -24 -17 -44 -37 -35 -36 -41 -38 -99 -38
l-62 0 -5 -39 -5 -39 -76 81 -76 81 -95 -94 -96 -94 80 -78 79 -78 -38 -5 -38
-5 3 -60 c2 -59 1 -62 -38 -100 -22 -21 -40 -43 -40 -48 0 -5 10 -18 21 -28
29 -25 17 -28 -101 -26 l-95 1 -3 -135 -3 -135 111 0 c60 1 110 -1 110 -4 0
-3 -9 -11 -20 -18 -29 -18 -25 -33 21 -77 31 -31 40 -47 39 -70 -1 -16 -2 -45
-1 -63 1 -31 3 -33 31 -28 50 7 43 -3 -97 -150 -7 -7 -13 -14 -13 -17 0 -7
173 -177 181 -177 4 0 41 34 81 75 l73 75 5 -37 5 -38 62 0 c54 0 66 -4 94
-30 19 -16 38 -36 45 -44 10 -13 14 -11 25 7 27 43 35 24 34 -85 l0 -108 135
-3 135 -3 -2 111 c-2 109 6 139 27 100 15 -28 27 -25 71 18 37 35 43 37 101
37 l63 1 1 32 c0 17 2 34 5 36 3 3 38 -28 79 -69 41 -41 78 -75 81 -75 9 0
179 171 179 180 0 3 -34 39 -75 80 -41 41 -75 77 -75 80 0 3 16 4 35 2 29 -3
35 -1 36 14 0 11 1 40 2 66 2 40 8 53 40 85 20 22 37 42 37 46 0 5 -12 18 -26
31 l-27 22 119 0 119 0 0 134 0 135 -112 -2 c-107 -1 -111 0 -100 18 7 10 15
19 19 19 19 0 5 29 -30 62 -37 35 -39 40 -39 100 l0 63 -37 5 -37 5 79 77 79
77 -91 93 -91 93 -82 -80 c-80 -77 -88 -79 -83 -27 2 24 1 24 -83 24 -43 0
-52 4 -89 43 l-42 44 -22 -25 c-13 -13 -25 -24 -28 -24 -2 0 -4 46 -4 103 0
56 0 108 -1 115 -1 9 -34 12 -130 12 -72 0 -132 -3 -134 -7z"/>
</g>
</svg>
