<?xml version="1.0" encoding="utf-8"?>
<!-- Generator: Adobe Illustrator 22.1.0, SVG Export Plug-In . SVG Version: 6.00 Build 0)  -->
<svg version="1.1" id="Capa_1" xmlns="http://www.w3.org/2000/svg" xmlns:xlink="http://www.w3.org/1999/xlink" x="0px" y="0px"
	 viewBox="0 0 438 300.6" style="enable-background:new 0 0 438 300.6;" xml:space="preserve">
<style type="text/css">
	.st0{fill:#F2F2F2;}
	.st1{fill:#FFFFFF;}
</style>
<title>404</title>
<g id="Layer_1-2">
	<g id="_404_text">
		<g id="text_404">
			
				<image style="overflow:visible;opacity:0.2;enable-background:new    ;" width="438" height="198" xlink:href="D346ADFE.png"  transform="matrix(1 0 0 1 0 -1.653236e-04)">
			</image>
			<path id="_Compound_Clipping_Path_" class="st0" d="M79.8,182.5V154H6.4v-27.6L49.1,9.6h39.8L42.6,122.5h37.2V74h36.2v48.5h16.5
				V154h-16.5v28.6L79.8,182.5z"/>
			<path id="_Compound_Clipping_Path_2" class="st0" d="M165.8,27.9c11.3-14.3,28-21.5,50.2-21.5c22.2,0,38.9,7.2,50.2,21.5
				c11.3,14.3,16.9,37.3,16.9,69s-5.6,54.4-16.8,68.2c-11.2,13.7-27.9,20.6-50.3,20.6c-22.4,0-39.1-6.9-50.3-20.6
				c-11.2-13.7-16.8-36.4-16.8-68.1S154.6,42.3,165.8,27.9z M245.8,96.2c0-21.6-2.3-36.7-6.8-45.3c-4.5-8.7-12.2-13-22.9-13
				c-10.7,0-18.4,4.4-23,13.2c-4.6,8.7-6.9,23.8-6.9,45.3c0,21.5,2.4,36.5,7.1,45.1c4.7,8.6,12.4,12.8,23.1,12.8
				c10.7,0,18.3-4.3,22.8-12.8S245.9,117.8,245.8,96.2L245.8,96.2z"/>
			<path id="_Compound_Clipping_Path_3" class="st0" d="M373.2,182.5V154h-73.4v-27.6L342.5,9.6h39.8L336,122.5h37.2V74h36.2v48.5
				h16.5V154h-16.5v28.6L373.2,182.5z"/>
		</g>
	</g>
</g>
<g>
	<path class="st1" d="M6,234v9H3.2v-23.8h6.5c2.5,0,4.5,0.6,5.9,1.9s2.1,3,2.1,5.2s-0.8,4.1-2.3,5.5c-1.6,1.4-3.7,2.2-6.3,2.2H6z
		 M6,221.7v9.8h2.9c1.9,0,3.4-0.4,4.4-1.3c1-0.9,1.5-2.1,1.5-3.7c0-3.1-1.9-4.7-5.6-4.7H6z"/>
	<path class="st1" d="M38,243h-3.1l-2.5-6.7H22.3L20,243h-3.1l9.1-23.8h2.9L38,243z M31.5,233.8l-3.7-10.1c-0.1-0.3-0.2-0.9-0.4-1.6
		h-0.1c-0.1,0.7-0.2,1.2-0.4,1.6l-3.7,10.1H31.5z"/>
	<path class="st1" d="M58.6,243h-3.3l-4-6.7c-0.4-0.6-0.7-1.1-1.1-1.6s-0.7-0.8-1.1-1.1s-0.7-0.5-1.2-0.6c-0.4-0.1-0.9-0.2-1.4-0.2
		h-2.3V243h-2.8v-23.8h7.1c1,0,2,0.1,2.9,0.4s1.6,0.7,2.3,1.2s1.2,1.2,1.5,2c0.4,0.8,0.5,1.7,0.5,2.8c0,0.8-0.1,1.6-0.4,2.3
		c-0.2,0.7-0.6,1.3-1.1,1.9c-0.5,0.5-1,1-1.7,1.4s-1.4,0.7-2.2,0.9v0.1c0.4,0.2,0.7,0.4,1,0.6s0.6,0.5,0.8,0.8s0.5,0.7,0.8,1.1
		s0.6,0.8,0.9,1.4L58.6,243z M44.3,221.7v8.6h3.8c0.7,0,1.3-0.1,1.9-0.3c0.6-0.2,1.1-0.5,1.5-0.9s0.8-0.9,1-1.4
		c0.2-0.6,0.4-1.2,0.4-1.9c0-1.3-0.4-2.3-1.2-3c-0.8-0.7-2-1.1-3.6-1.1H44.3z"/>
	<path class="st1" d="M74.5,243H61.9v-23.8h12.1v2.5h-9.3v7.9h8.6v2.5h-8.6v8.3h9.8V243z"/>
	<path class="st1" d="M95.2,242c-1.8,0.9-3.9,1.4-6.6,1.4c-3.4,0-6.1-1.1-8.1-3.3c-2-2.2-3.1-5-3.1-8.6c0-3.8,1.1-6.9,3.4-9.2
		c2.3-2.3,5.2-3.5,8.7-3.5c2.3,0,4.1,0.3,5.6,1v3c-1.7-1-3.6-1.4-5.6-1.4c-2.7,0-4.9,0.9-6.6,2.7c-1.7,1.8-2.5,4.3-2.5,7.3
		c0,2.9,0.8,5.2,2.4,6.9c1.6,1.7,3.7,2.6,6.2,2.6c2.4,0,4.5-0.5,6.2-1.6V242z"/>
	<path class="st1" d="M112.7,243h-12.6v-23.8h12.1v2.5h-9.3v7.9h8.6v2.5h-8.6v8.3h9.8V243z"/>
	<path class="st1" d="M136.2,243.4c-3.4,0-6.1-1.1-8.1-3.3c-2-2.2-3-5.1-3-8.7c0-3.8,1-6.9,3.1-9.2c2.1-2.3,4.9-3.4,8.4-3.4
		c3.3,0,5.9,1.1,7.9,3.3s3,5.1,3,8.7c0,3.9-1,7-3.1,9.2c-0.5,0.5-1,1-1.6,1.4l6.7,4.8h-5.1l-4.5-3.4
		C138.9,243.2,137.6,243.4,136.2,243.4z M136.4,221.3c-2.5,0-4.5,0.9-6.1,2.7c-1.6,1.8-2.3,4.2-2.3,7.1c0,2.9,0.8,5.3,2.3,7.1
		c1.5,1.8,3.5,2.7,6,2.7c2.6,0,4.7-0.9,6.2-2.6c1.5-1.7,2.3-4.1,2.3-7.2c0-3.2-0.7-5.6-2.2-7.3C141,222.2,138.9,221.3,136.4,221.3z"
		/>
	<path class="st1" d="M169.6,233.3c0,6.7-3,10-9,10c-5.8,0-8.7-3.2-8.7-9.6v-14.6h2.8v14.4c0,4.9,2.1,7.3,6.2,7.3c4,0,6-2.4,6-7.1
		v-14.6h2.8V233.3z"/>
	<path class="st1" d="M188.2,243h-12.6v-23.8h12.1v2.5h-9.3v7.9h8.6v2.5h-8.6v8.3h9.8V243z"/>
	<path class="st1" d="M214.7,243H202v-23.8h12.1v2.5h-9.3v7.9h8.6v2.5h-8.6v8.3h9.8V243z"/>
	<path class="st1" d="M218.1,242v-3.3c0.4,0.3,0.8,0.6,1.4,0.9c0.5,0.3,1.1,0.5,1.7,0.7c0.6,0.2,1.2,0.3,1.8,0.4
		c0.6,0.1,1.1,0.1,1.6,0.1c1.7,0,3-0.3,3.8-1c0.8-0.6,1.3-1.6,1.3-2.7c0-0.6-0.1-1.2-0.4-1.7s-0.7-0.9-1.2-1.3
		c-0.5-0.4-1.1-0.8-1.8-1.1c-0.7-0.4-1.4-0.7-2.2-1.1c-0.8-0.4-1.6-0.8-2.3-1.3c-0.7-0.4-1.3-0.9-1.9-1.4c-0.5-0.5-0.9-1.1-1.3-1.8
		c-0.3-0.7-0.5-1.4-0.5-2.3c0-1.1,0.2-2,0.7-2.8c0.5-0.8,1.1-1.5,1.9-2c0.8-0.5,1.7-0.9,2.6-1.2c1-0.3,2-0.4,3-0.4
		c2.3,0,4.1,0.3,5.1,0.8v3.1c-1.4-1-3.2-1.5-5.4-1.5c-0.6,0-1.2,0.1-1.8,0.2c-0.6,0.1-1.2,0.3-1.6,0.6c-0.5,0.3-0.9,0.7-1.2,1.1
		c-0.3,0.5-0.4,1-0.4,1.7c0,0.6,0.1,1.1,0.3,1.6c0.2,0.4,0.6,0.8,1,1.2c0.4,0.4,1,0.7,1.6,1.1c0.6,0.3,1.4,0.7,2.2,1.1
		c0.9,0.4,1.7,0.9,2.4,1.3c0.8,0.5,1.4,1,2,1.5c0.6,0.6,1,1.2,1.4,1.9c0.3,0.7,0.5,1.5,0.5,2.4c0,1.2-0.2,2.2-0.7,3s-1.1,1.5-1.9,2
		s-1.7,0.9-2.7,1.1c-1,0.2-2.1,0.3-3.2,0.3c-0.4,0-0.8,0-1.4-0.1s-1.1-0.1-1.7-0.3c-0.6-0.1-1.1-0.3-1.6-0.4
		C218.8,242.4,218.4,242.2,218.1,242z"/>
	<path class="st1" d="M251.4,221.7h-6.9V243h-2.8v-21.3h-6.9v-2.5h16.5V221.7z"/>
	<path class="st1" d="M271,243h-3.1l-2.5-6.7h-10.1l-2.4,6.7h-3.1l9.1-23.8h2.9L271,243z M264.4,233.8l-3.7-10.1
		c-0.1-0.3-0.2-0.9-0.4-1.6h-0.1c-0.1,0.7-0.2,1.2-0.4,1.6l-3.7,10.1H264.4z M263.8,211.5l-4.3,5.4h-2.1l3.7-5.4H263.8z"/>
	<path class="st1" d="M273.3,242v-3.3c0.4,0.3,0.8,0.6,1.4,0.9c0.5,0.3,1.1,0.5,1.7,0.7c0.6,0.2,1.2,0.3,1.8,0.4
		c0.6,0.1,1.1,0.1,1.6,0.1c1.7,0,3-0.3,3.8-1s1.3-1.6,1.3-2.7c0-0.6-0.1-1.2-0.4-1.7s-0.7-0.9-1.2-1.3c-0.5-0.4-1.1-0.8-1.8-1.1
		c-0.7-0.4-1.4-0.7-2.2-1.1c-0.8-0.4-1.6-0.8-2.3-1.3c-0.7-0.4-1.3-0.9-1.9-1.4c-0.5-0.5-0.9-1.1-1.3-1.8c-0.3-0.7-0.5-1.4-0.5-2.3
		c0-1.1,0.2-2,0.7-2.8c0.5-0.8,1.1-1.5,1.9-2s1.7-0.9,2.6-1.2c1-0.3,2-0.4,3-0.4c2.3,0,4.1,0.3,5.1,0.8v3.1c-1.4-1-3.2-1.5-5.4-1.5
		c-0.6,0-1.2,0.1-1.8,0.2c-0.6,0.1-1.2,0.3-1.6,0.6c-0.5,0.3-0.9,0.7-1.2,1.1c-0.3,0.5-0.4,1-0.4,1.7c0,0.6,0.1,1.1,0.3,1.6
		c0.2,0.4,0.6,0.8,1,1.2c0.4,0.4,1,0.7,1.6,1.1s1.4,0.7,2.2,1.1c0.9,0.4,1.7,0.9,2.4,1.3c0.8,0.5,1.4,1,2,1.5c0.6,0.6,1,1.2,1.4,1.9
		c0.3,0.7,0.5,1.5,0.5,2.4c0,1.2-0.2,2.2-0.7,3c-0.5,0.8-1.1,1.5-1.9,2s-1.7,0.9-2.7,1.1s-2.1,0.3-3.2,0.3c-0.4,0-0.8,0-1.4-0.1
		s-1.1-0.1-1.7-0.3c-0.6-0.1-1.1-0.3-1.6-0.4C274.1,242.4,273.7,242.2,273.3,242z"/>
	<path class="st1" d="M304.6,234v9h-2.8v-23.8h6.5c2.5,0,4.5,0.6,5.9,1.9s2.1,3,2.1,5.2s-0.8,4.1-2.3,5.5c-1.6,1.4-3.7,2.2-6.3,2.2
		H304.6z M304.6,221.7v9.8h2.9c1.9,0,3.4-0.4,4.4-1.3c1-0.9,1.5-2.1,1.5-3.7c0-3.1-1.9-4.7-5.6-4.7H304.6z"/>
	<path class="st1" d="M333.5,243h-12.6v-23.8h12.1v2.5h-9.3v7.9h8.6v2.5h-8.6v8.3h9.8V243z"/>
	<path class="st1" d="M355.1,243h-3.3l-4-6.7c-0.4-0.6-0.7-1.1-1.1-1.6c-0.3-0.4-0.7-0.8-1.1-1.1s-0.7-0.5-1.2-0.6
		c-0.4-0.1-0.9-0.2-1.4-0.2h-2.3V243H338v-23.8h7.1c1,0,2,0.1,2.9,0.4s1.6,0.7,2.3,1.2c0.6,0.5,1.2,1.2,1.5,2
		c0.4,0.8,0.5,1.7,0.5,2.8c0,0.8-0.1,1.6-0.4,2.3c-0.2,0.7-0.6,1.3-1.1,1.9c-0.5,0.5-1,1-1.7,1.4c-0.6,0.4-1.4,0.7-2.2,0.9v0.1
		c0.4,0.2,0.7,0.4,1,0.6c0.3,0.2,0.6,0.5,0.8,0.8s0.5,0.7,0.8,1.1s0.6,0.8,0.9,1.4L355.1,243z M340.8,221.7v8.6h3.8
		c0.7,0,1.3-0.1,1.9-0.3c0.6-0.2,1.1-0.5,1.5-0.9s0.8-0.9,1-1.4c0.2-0.6,0.4-1.2,0.4-1.9c0-1.3-0.4-2.3-1.2-3
		c-0.8-0.7-2-1.1-3.6-1.1H340.8z"/>
	<path class="st1" d="M358.4,243v-23.8h6.6c8.4,0,12.6,3.9,12.6,11.6c0,3.7-1.2,6.6-3.5,8.9c-2.3,2.2-5.4,3.3-9.3,3.3H358.4z
		 M361.2,221.7v18.7h3.6c3.1,0,5.5-0.8,7.3-2.5c1.7-1.7,2.6-4,2.6-7.1c0-6.1-3.2-9.1-9.7-9.1H361.2z"/>
	<path class="st1" d="M385,243h-2.8v-23.8h2.8V243z"/>
	<path class="st1" d="M391.2,243v-23.8h6.6c8.4,0,12.6,3.9,12.6,11.6c0,3.7-1.2,6.6-3.5,8.9c-2.3,2.2-5.4,3.3-9.3,3.3H391.2z
		 M394,221.7v18.7h3.6c3.1,0,5.5-0.8,7.3-2.5c1.7-1.7,2.6-4,2.6-7.1c0-6.1-3.2-9.1-9.7-9.1H394z"/>
	<path class="st1" d="M424.7,243.4c-3.4,0-6.1-1.1-8.1-3.3c-2-2.2-3-5.1-3-8.7c0-3.8,1-6.9,3.1-9.2c2.1-2.3,4.9-3.4,8.4-3.4
		c3.3,0,5.9,1.1,7.9,3.3s3,5.1,3,8.7c0,3.9-1,7-3.1,9.2S428.1,243.4,424.7,243.4z M424.8,221.3c-2.5,0-4.5,0.9-6.1,2.7
		c-1.6,1.8-2.3,4.2-2.3,7.1s0.8,5.3,2.3,7.1c1.5,1.8,3.5,2.7,5.9,2.7c2.6,0,4.7-0.9,6.2-2.6c1.5-1.7,2.3-4.1,2.3-7.2
		c0-3.1-0.7-5.6-2.2-7.3S427.4,221.3,424.8,221.3z"/>
	<path class="st1" d="M122.9,283.7h-12.6V260h12.1v2.5h-9.3v7.9h8.6v2.5h-8.6v8.3h9.8V283.7z"/>
	<path class="st1" d="M146.7,283.7h-3.4l-12.2-19c-0.3-0.5-0.6-1-0.8-1.5h-0.1c0.1,0.5,0.1,1.6,0.1,3.3v17.2h-2.8V260h3.6l11.9,18.7
		c0.5,0.8,0.8,1.3,1,1.6h0.1c-0.1-0.7-0.2-1.9-0.2-3.5V260h2.8V283.7z"/>
	<path class="st1" d="M174.9,283.7h-12.6V260h12.1v2.5H165v7.9h8.6v2.5H165v8.3h9.8V283.7z"/>
	<path class="st1" d="M191.8,283.7h-12.3V260h2.8v21.3h9.6V283.7z"/>
	<path class="st1" d="M217.3,283.7h-12.6V260h12.1v2.5h-9.3v7.9h8.6v2.5h-8.6v8.3h9.8V283.7z"/>
	<path class="st1" d="M220.8,282.8v-3.3c0.4,0.3,0.8,0.6,1.4,0.9c0.5,0.3,1.1,0.5,1.7,0.7c0.6,0.2,1.2,0.3,1.8,0.4
		c0.6,0.1,1.1,0.1,1.6,0.1c1.7,0,3-0.3,3.8-1c0.8-0.6,1.3-1.6,1.3-2.7c0-0.6-0.1-1.2-0.4-1.7s-0.7-0.9-1.2-1.3
		c-0.5-0.4-1.1-0.8-1.8-1.1c-0.7-0.4-1.4-0.7-2.2-1.1c-0.8-0.4-1.6-0.8-2.3-1.3c-0.7-0.4-1.3-0.9-1.9-1.4s-0.9-1.1-1.3-1.8
		c-0.3-0.7-0.5-1.4-0.5-2.3c0-1.1,0.2-2,0.7-2.8c0.5-0.8,1.1-1.5,1.9-2c0.8-0.5,1.7-0.9,2.6-1.2c1-0.3,2-0.4,3-0.4
		c2.3,0,4.1,0.3,5.1,0.8v3.1c-1.4-1-3.2-1.5-5.4-1.5c-0.6,0-1.2,0.1-1.8,0.2c-0.6,0.1-1.2,0.3-1.6,0.6c-0.5,0.3-0.9,0.7-1.2,1.1
		c-0.3,0.5-0.4,1-0.4,1.7c0,0.6,0.1,1.1,0.3,1.6s0.6,0.8,1,1.2c0.4,0.4,1,0.7,1.6,1.1c0.6,0.3,1.4,0.7,2.2,1.1
		c0.9,0.4,1.7,0.9,2.4,1.3c0.8,0.5,1.4,1,2,1.5c0.6,0.6,1,1.2,1.4,1.9c0.3,0.7,0.5,1.5,0.5,2.4c0,1.2-0.2,2.2-0.7,3
		c-0.5,0.8-1.1,1.5-1.9,2c-0.8,0.5-1.7,0.9-2.7,1.1c-1,0.2-2.1,0.3-3.2,0.3c-0.4,0-0.8,0-1.4-0.1c-0.6-0.1-1.1-0.1-1.7-0.3
		c-0.6-0.1-1.1-0.3-1.6-0.4C221.5,283.2,221.1,283,220.8,282.8z"/>
	<path class="st1" d="M242.8,274.8v9H240V260h6.5c2.5,0,4.5,0.6,5.9,1.9c1.4,1.2,2.1,3,2.1,5.2c0,2.3-0.8,4.1-2.3,5.5
		c-1.6,1.4-3.7,2.2-6.3,2.2H242.8z M242.8,262.5v9.8h2.9c1.9,0,3.4-0.4,4.4-1.3s1.5-2.1,1.5-3.7c0-3.1-1.9-4.7-5.6-4.7H242.8z"/>
	<path class="st1" d="M274.8,283.7h-3.1l-2.5-6.7h-10.1l-2.4,6.7h-3.1l9.1-23.8h2.9L274.8,283.7z M268.3,274.6l-3.7-10.1
		c-0.1-0.3-0.2-0.9-0.4-1.6h-0.1c-0.1,0.7-0.2,1.2-0.4,1.6l-3.7,10.1H268.3z"/>
	<path class="st1" d="M294.1,282.8c-1.8,0.9-3.9,1.4-6.6,1.4c-3.4,0-6.1-1.1-8.1-3.3s-3.1-5-3.1-8.6c0-3.8,1.1-6.9,3.4-9.2
		s5.2-3.5,8.7-3.5c2.3,0,4.1,0.3,5.6,1v3c-1.7-1-3.6-1.4-5.6-1.4c-2.7,0-4.9,0.9-6.6,2.7c-1.7,1.8-2.5,4.3-2.5,7.3
		c0,2.9,0.8,5.2,2.4,6.9s3.7,2.6,6.2,2.6c2.4,0,4.5-0.5,6.2-1.6V282.8z"/>
	<path class="st1" d="M301.7,283.7h-2.8V260h2.8V283.7z"/>
	<path class="st1" d="M317.5,284.1c-3.4,0-6.1-1.1-8.1-3.3s-3-5.1-3-8.7c0-3.8,1-6.9,3.1-9.2c2.1-2.3,4.9-3.4,8.4-3.4
		c3.3,0,5.9,1.1,7.9,3.3c2,2.2,3,5.1,3,8.7c0,3.9-1,7-3.1,9.2C323.7,283,321,284.1,317.5,284.1z M317.7,262.1
		c-2.5,0-4.5,0.9-6.1,2.7c-1.6,1.8-2.3,4.2-2.3,7.1s0.8,5.3,2.3,7.1c1.5,1.8,3.5,2.7,5.9,2.7c2.6,0,4.7-0.9,6.2-2.6
		c1.5-1.7,2.3-4.1,2.3-7.2c0-3.1-0.7-5.6-2.2-7.3C322.3,262.9,320.3,262.1,317.7,262.1z"/>
</g>
</svg>
