<?xml version="1.0" encoding="utf-8"?>
<!-- Generator: Adobe Illustrator 23.0.5, SVG Export Plug-In . SVG Version: 6.00 Build 0)  -->
<svg version="1.1"
	 id="svg2" xmlns:cc="http://web.resource.org/cc/" xmlns:dc="http://purl.org/dc/elements/1.1/" xmlns:inkscape="http://www.inkscape.org/namespaces/inkscape" xmlns:rdf="http://www.w3.org/1999/02/22-rdf-syntax-ns#" xmlns:sodipodi="http://sodipodi.sourceforge.net/DTD/sodipodi-0.dtd" xmlns:svg="http://www.w3.org/2000/svg"
	 xmlns="http://www.w3.org/2000/svg" xmlns:xlink="http://www.w3.org/1999/xlink" x="0px" y="0px" viewBox="0 0 1280 1024"
	 style="enable-background:new 0 0 1280 1024;" xml:space="preserve">
<style type="text/css">
	.st0{fill:#FFFFFF;}
</style>
<sodipodi:namedview  bordercolor="#666666" borderopacity="1.0" height="1024px" id="base" inkscape:current-layer="layer1" inkscape:cx="640" inkscape:cy="512" inkscape:document-units="px" inkscape:pageopacity="0.0" inkscape:pageshadow="2" inkscape:window-height="938" inkscape:window-width="1280" inkscape:window-x="-4" inkscape:window-y="-4" inkscape:zoom="0.72460938" pagecolor="#ffffff" width="1280px">
	</sodipodi:namedview>
<g>
	<g>
		<path class="st0" d="M24.9,521.2l13.2-48.7L224,405.1l-16.7,56.3L87.4,502.9l97,45.2l-13,46L24.9,521.2z"/>
	</g>
	<g>
		<path class="st0" d="M1049.2,362.4h57.3l-124,248.3h-57.1L1049.2,362.4z"/>
		<path class="st0" d="M1057.4,594.1l15.7-58.2l105-39.1l-83.3-39.5l12.8-52.3l147.4,71.3l-12.2,45.8L1057.4,594.1z"/>
	</g>
	<g>
		<path class="st0" d="M297.5,442.9c-1.2,0-2.3,0.3-3.2,1c-0.9,0.7-1.5,1.5-1.9,2.4c-0.8,2.9-1.4,5.3-1.9,7.2
			c-0.5,1.9-1,3.7-1.4,5.3c-0.4,1.6-0.8,2.8-0.9,3.4c-0.3,1.5,0.1,2.8,1.1,3.9c1,1.1,2.3,1.7,3.9,1.7c0.6,0,3.9,0,9.8,0
			c5.9,0,12.9,0,21,0c8.1,0,15.5,0,22.1,0c6.7,0,10.8,0,12.3,0c12,0,21.6,4.2,28.8,12.7c7.2,8.4,9.4,18,6.7,28.9
			c0,0.1,0,0.2-0.1,0.4c0,0.2-0.4,1.6-1.1,4.4c-0.8,2.7-1.6,6-2.7,9.7c-1,3.7-2,7.2-2.9,10.4c-0.9,3.2-1.4,5.3-1.6,6.2
			c-2.4,7.9-7.1,14.3-14,19.4c-6.9,4.9-15,7.4-24.3,7.4c-0.1,0-0.2,0-0.4,0c-1.2,0-7.8,0-19.8,0c-12,0-26,0-42.2,0
			c-16.2,0-30.9,0-44.1,0c-13.2,0-21,0-23.5,0c1.8-6.9,3.3-12.6,4.5-17.1c1.2-4.6,2.4-8.8,3.4-12.7c1-3.9,1.7-6.4,1.9-7.6
			c1.1,0,6.9,0,17.4,0c10.5,0,22.9,0,37.2,0c14.3,0,27.2,0,38.9,0c11.6,0,18.6,0,20.8,0c2.5,0,4.2-1.2,5.2-3.5
			c0.8-2.9,1.4-5.3,1.9-7.2c0.5-1.9,1-3.7,1.4-5.3c0.4-1.6,0.8-2.8,0.9-3.4c0.6-1.4,0.4-2.7-0.5-3.9c-1-1.2-2.3-1.8-3.9-1.8h0.1
			c-0.1,0-0.2,0-0.4,0c-0.6,0-3.9,0-9.9,0c-6,0-13,0-21.1,0c-8.1,0-15.5,0-22.1,0s-10.7,0-12.1,0c-12.1,0-21.7-4.1-28.9-12.3
			c-7.3-8.2-9.5-17.9-6.7-29c0-0.1,0-0.2,0-0.4l0.3-1.1c0.5-1.8,1.4-4.9,2.6-9.2c1.2-4.3,2.4-8.5,3.5-12.6c1.1-4.1,1.8-6.8,2.2-8.1
			c7.6-17.4,20.2-26,38-26c0.1,0,0.2,0,0.4,0c1.2,0,7.9,0,19.9,0c12,0,26.1,0,42.2,0c16.1,0,30.8,0,44.1,0s21.1,0,23.6,0
			c-1.8,6.8-3.3,12.4-4.5,16.9c-1.2,4.5-2.4,8.7-3.4,12.5c-1,3.8-1.7,6.3-1.9,7.5c-1.1,0-6.9,0-17.5,0c-10.6,0-23,0-37.3,0
			c-14.3,0-27.2,0-38.9,0C306.6,442.9,299.7,442.9,297.5,442.9z"/>
		<path class="st0" d="M431.5,432.7c7.2-17.8,20-26.6,38.5-26.6h123.6l-9.9,36.9h-72H477c-1,0-2,0.4-3.1,1.1c-1.2,0.7-2,1.7-2.4,2.9
			l-5.7,21.3h72.7l-9.5,36.9H456l-5.3,19.6c-0.3,1.5,0.1,2.8,1.2,3.9c1,1.1,2.3,1.7,4,1.7l104.1,0.1c-2.9,11.2-6.2,23.5-9.9,36.8
			H444.4c-12.6,0-22.8-4.2-30.4-12.5c-7.7-8.3-10.3-17.9-7.6-28.8L431.5,432.7z"/>
		<path class="st0" d="M664.2,442.7h-59.5l10-36.7H774l-10.1,36.7h-57.6l-34.7,124.5H629L664.2,442.7z"/>
		<path class="st0" d="M787.8,432.7c7.6-17.8,20.1-26.6,37.7-26.6H837l-12.7,49.2l-3.3,12.5h68.1c2.2,0,4.2-0.6,6-1.8
			c1.9-1.3,3.1-2.9,3.6-4.9l1.6-6.1h0.1l12.7-49h43.6l-37.2,134.6c-7,17.8-19.6,26.6-37.9,26.6h-11.5l12.7-47.4l4-14.3h-68
			c-5.2,0-8.6,2.2-10.3,6.7l-1.2,4.5l-13.6,50.5h-42.7L787.8,432.7z"/>
	</g>
	<g>
		<path class="st0" d="M541.6,616.2c-0.5,0-0.8,0.1-1.2,0.4c-0.3,0.3-0.6,0.6-0.7,0.9c-0.3,1-0.5,1.9-0.7,2.6
			c-0.2,0.7-0.3,1.3-0.5,1.9c-0.2,0.6-0.3,1-0.3,1.2c-0.1,0.6,0,1,0.4,1.4c0.4,0.4,0.8,0.6,1.4,0.6c0.2,0,1.4,0,3.6,0
			c2.2,0,4.7,0,7.7,0s5.6,0,8.1,0c2.4,0,3.9,0,4.5,0c4.4,0,7.9,1.5,10.5,4.6c2.6,3.1,3.4,6.6,2.4,10.5c0,0,0,0.1,0,0.1
			c0,0.1-0.1,0.6-0.4,1.6c-0.3,1-0.6,2.2-1,3.6c-0.4,1.4-0.7,2.6-1,3.8s-0.5,1.9-0.6,2.3c-0.9,2.9-2.6,5.2-5.1,7.1
			c-2.5,1.8-5.5,2.7-8.8,2.7c0,0-0.1,0-0.1,0c-0.5,0-2.9,0-7.2,0s-9.5,0-15.4,0s-11.3,0-16.1,0c-4.8,0-7.7,0-8.6,0
			c0.6-2.5,1.2-4.6,1.7-6.3c0.5-1.7,0.9-3.2,1.2-4.6c0.4-1.4,0.6-2.3,0.7-2.8c0.4,0,2.5,0,6.3,0c3.8,0,8.4,0,13.6,0
			c5.2,0,9.9,0,14.2,0c4.2,0,6.8,0,7.6,0c0.9,0,1.5-0.4,1.9-1.3c0.3-1,0.5-1.9,0.7-2.6c0.2-0.7,0.3-1.3,0.5-1.9
			c0.2-0.6,0.3-1,0.3-1.2c0.2-0.5,0.2-1-0.2-1.4c-0.4-0.4-0.8-0.7-1.4-0.7h0c0,0-0.1,0-0.1,0c-0.2,0-1.4,0-3.6,0c-2.2,0-4.8,0-7.7,0
			c-2.9,0-5.6,0-8.1,0c-2.4,0-3.9,0-4.4,0c-4.4,0-7.9-1.5-10.6-4.5c-2.7-3-3.5-6.5-2.4-10.6c0,0,0-0.1,0-0.1l0.1-0.4
			c0.2-0.7,0.5-1.8,0.9-3.4c0.4-1.6,0.9-3.1,1.3-4.6c0.4-1.5,0.7-2.5,0.8-2.9c2.8-6.3,7.4-9.5,13.9-9.5c0,0,0.1,0,0.2,0
			c0.5,0,2.9,0,7.2,0s9.5,0,15.4,0c5.9,0,11.2,0,16.1,0c4.8,0,7.7,0,8.6,0c-0.6,2.5-1.2,4.5-1.7,6.2s-0.9,3.2-1.2,4.6
			c-0.4,1.4-0.6,2.3-0.7,2.7c-0.4,0-2.5,0-6.4,0c-3.9,0-8.4,0-13.6,0s-9.9,0-14.2,0S542.5,616.2,541.6,616.2z"/>
		<path class="st0" d="M588.2,658c-2.4-1.7-4.3-3.9-5.5-6.8c-2.8-6.2-2.2-13.1,1.7-20.8c5.3-8.5,13.7-13,25.5-13.4
			c2.9-0.1,5.8-0.1,8.7,0.1c4.8,0.4,8.4,1.4,10.9,3.2c2.5,1.7,4.3,4,5.6,6.9c2.8,6.2,2.2,13.1-1.7,20.8c-5.2,8.6-13.9,13.1-26,13.5
			c-2.5,0.1-5.3,0.1-8.4-0.1C594.3,660.8,590.7,659.6,588.2,658z M620.7,640.3c1-3.3,1-5.8,0.1-7.6c-0.9-1.7-3.3-2.8-7-3.1
			c-4.8-0.3-8.8,0.4-11.9,2.2c-2.4,1.7-4,3.8-4.8,6.2c-2.2,6.6,0,10.1,6.9,10.6c5.6,0.1,9.5-0.6,11.9-2.2
			C618.3,644.9,619.9,642.8,620.7,640.3z"/>
		<path class="st0" d="M653.3,602.7h16l-12.4,43.8c-0.1,0.7,0.1,1.4,0.6,2c0.5,0.6,1.2,0.9,2.1,0.9h8.8l-3.5,12.2H654
			c-4.4,0-8-1.5-10.6-4.5c-2.6-3-3.5-6.5-2.7-10.5L653.3,602.7z"/>
		<path class="st0" d="M683.4,617.2h15.9l-7.9,29.3c-0.1,0.7,0.1,1.4,0.6,2c0.5,0.6,1.2,0.9,2,0.9h11l9.2-32.1h16l-12.4,44.3h-14.4
			l0,0h-15c-4.4,0-7.8-1.5-10.4-4.5c-2.6-3-3.4-6.5-2.4-10.5L683.4,617.2z"/>
		<path class="st0" d="M728.4,646.5l12-43.8h15.8c-2.7,9.3-4,14.1-4.1,14.5h11.6l-3.5,12.9h-11.6c-0.8,3.1-1.5,5.7-2.1,7.7
			s-1.1,3.9-1.5,5.6c-0.5,1.7-0.7,2.7-0.8,3.1c-0.1,0.7,0.1,1.4,0.6,2c0.5,0.6,1.2,0.9,2,0.9h8.2l-3.3,12.2h-10.6
			c-4.3,0-7.8-1.5-10.3-4.5C728.3,654,727.5,650.5,728.4,646.5z"/>
		<path class="st0" d="M758.1,661.6l12.3-44.5h16l-12.1,44.5H758.1z M774.4,602.7h16l-3,10.5h-16L774.4,602.7z"/>
		<path class="st0" d="M792.5,658c-2.4-1.7-4.3-3.9-5.5-6.8c-2.8-6.2-2.2-13.1,1.7-20.8c5.3-8.5,13.7-13,25.5-13.4
			c2.9-0.1,5.8-0.1,8.7,0.1c4.8,0.4,8.4,1.4,10.9,3.2c2.5,1.7,4.3,4,5.6,6.9c2.8,6.2,2.2,13.1-1.7,20.8c-5.2,8.6-13.9,13.1-26,13.5
			c-2.5,0.1-5.3,0.1-8.4-0.1C798.5,660.8,794.9,659.6,792.5,658z M824.9,640.3c1-3.3,1-5.8,0.1-7.6c-0.9-1.7-3.3-2.8-7-3.1
			c-4.8-0.3-8.8,0.4-11.9,2.2c-2.4,1.7-4,3.8-4.8,6.2c-2.2,6.6,0,10.1,6.9,10.6c5.6,0.1,9.5-0.6,11.9-2.2
			C822.6,644.9,824.2,642.8,824.9,640.3z"/>
		<path class="st0" d="M887.9,661.6H872l8.2-29.3c0.1-0.8-0.1-1.4-0.5-2c-0.5-0.6-1.2-0.9-2.1-0.9h-11.9l-8.8,32.1H841l12.1-44.3
			h19.5v0h10.9c4.3,0,7.8,1.5,10.3,4.5c2.6,3,3.3,6.5,2.3,10.5L887.9,661.6z"/>
	</g>
</g>
</svg>
